<?xml version="1.0" encoding="UTF-8"?>
<svg xmlns="http://www.w3.org/2000/svg" viewBox="0 0 1920 1080" preserveAspectRatio="xMidYMid slice">
  <defs>
    <radialGradient id="lampGlow" cx="50%" cy="0%" r="65%">
      <stop offset="0%"   stop-color="#ffcc44" stop-opacity="0.32"/>
      <stop offset="100%" stop-color="#ffcc44" stop-opacity="0"/>
    </radialGradient>
    <radialGradient id="fireGlow" cx="0%" cy="100%" r="55%">
      <stop offset="0%"   stop-color="#ff6010" stop-opacity="0.38"/>
      <stop offset="100%" stop-color="#ff6010" stop-opacity="0"/>
    </radialGradient>
    <radialGradient id="winLight" cx="17%" cy="55%" r="22%">
      <stop offset="0%"   stop-color="#8090c8" stop-opacity="0.14"/>
      <stop offset="100%" stop-color="#8090c8" stop-opacity="0"/>
    </radialGradient>
  </defs>

  <!-- 天花板 -->
  <rect width="1920" height="96" fill="#150a04"/>
  <!-- 頂線 -->
  <rect x="0" y="86" width="1920" height="16" fill="#1e1008"/>
  <rect x="0" y="96" width="1920" height="8"  fill="#3c2212"/>

  <!-- 牆壁（上段稍亮，製造層次） -->
  <rect x="0" y="96"  width="1920" height="672" fill="#503020"/>
  <rect x="0" y="104" width="1920" height="300" fill="#5c3828"/>
  <!-- 腰線橫條 -->
  <rect x="0" y="400" width="1920" height="9"  fill="#2c1808"/>
  <rect x="0" y="409" width="1920" height="5"  fill="#6a4030"/>
  <rect x="0" y="414" width="1920" height="5"  fill="#2c1808"/>

  <!-- 燈光暈（上方暖黃） -->
  <rect width="1920" height="1080" fill="url(#lampGlow)"/>
  <!-- 壁爐暖光（左下） -->
  <rect width="1920" height="1080" fill="url(#fireGlow)"/>
  <!-- 窗戶散射藍光 -->
  <rect width="1920" height="1080" fill="url(#winLight)"/>

  <!-- 吊燈 -->
  <rect x="948" y="0"   width="24" height="128" fill="#241006"/>
  <rect x="908" y="104" width="104" height="72" fill="#3a1c0c" rx="4"/>
  <rect x="916" y="108" width="88"  height="64" fill="#c8801c" opacity="0.75" rx="2"/>
  <!-- 燈罩光錐（微弱三角暗示） -->
  <polygon points="908,176 1012,176 1080,340 840,340" fill="#ffcc44" opacity="0.035"/>

  <!-- ===== 窗戶（左側） ===== -->
  <!-- 外框 -->
  <rect x="152" y="152" width="360" height="464" fill="#3c2212" rx="4"/>
  <!-- 玻璃夜景底色 -->
  <rect x="160" y="160" width="344" height="448" fill="#101e30"/>
  <!-- 窗格十字 -->
  <rect x="160" y="372" width="344" height="16"  fill="#3c2212"/>
  <rect x="330" y="160" width="16"  height="448" fill="#3c2212"/>
  <!-- 四格玻璃（微亮藍） -->
  <rect x="160" y="160" width="166" height="208" fill="#0e1c2e"/>
  <rect x="350" y="160" width="154" height="208" fill="#0e1c2e"/>
  <rect x="160" y="392" width="166" height="216" fill="#0e1c2e"/>
  <rect x="350" y="392" width="154" height="216" fill="#0e1c2e"/>
  <!-- 窗外月亮 -->
  <rect x="182" y="196" width="64" height="64" fill="#d8e8b4" rx="5" opacity="0.88"/>
  <!-- 窗外星星 -->
  <rect x="370" y="188" width="4" height="4" fill="#fff" opacity="0.90"/>
  <rect x="424" y="214" width="3" height="3" fill="#fff" opacity="0.70"/>
  <rect x="398" y="252" width="4" height="4" fill="#fff" opacity="0.80"/>
  <rect x="458" y="196" width="3" height="3" fill="#fff" opacity="0.60"/>
  <rect x="382" y="284" width="4" height="4" fill="#fff" opacity="0.55"/>
  <rect x="446" y="268" width="3" height="3" fill="#fff" opacity="0.70"/>
  <rect x="412" y="230" width="2" height="2" fill="#fff" opacity="0.50"/>
  <!-- 窗台 -->
  <rect x="136" y="608" width="392" height="16" fill="#4a2c14"/>
  <rect x="132" y="616" width="400" height="8"  fill="#2a1608"/>

  <!-- ===== 畫框（牆面中央偏左） ===== -->
  <rect x="748" y="188" width="256" height="216" fill="none" stroke="#623c1c" stroke-width="10" rx="3"/>
  <rect x="758" y="198" width="236" height="196" fill="#1a1228"/>
  <!-- 畫作內容（簡單像素風景） -->
  <rect x="758" y="198" width="236" height="104" fill="#16222e"/>
  <rect x="758" y="302" width="236" height="92"  fill="#0e1618"/>
  <rect x="770" y="270" width="44"  height="44"  fill="#091410" opacity="0.85"/>
  <rect x="836" y="250" width="60"  height="64"  fill="#091410" opacity="0.85"/>
  <rect x="924" y="258" width="52"  height="56"  fill="#091410" opacity="0.85"/>
  <circle cx="876" cy="228" r="22" fill="#d0c880" opacity="0.38"/>

  <!-- ===== 書架（右側） ===== -->
  <!-- 書架背板 -->
  <rect x="1564" y="152" width="272" height="520" fill="#2a1408"/>
  <!-- 層板 × 5 -->
  <rect x="1548" y="152" width="288" height="16" fill="#5c3618"/>
  <rect x="1548" y="280" width="288" height="16" fill="#5c3618"/>
  <rect x="1548" y="408" width="288" height="16" fill="#5c3618"/>
  <rect x="1548" y="536" width="288" height="16" fill="#5c3618"/>
  <rect x="1548" y="664" width="288" height="16" fill="#5c3618"/>
  <!-- 側板 -->
  <rect x="1548" y="152" width="16" height="528" fill="#4c2c10"/>
  <rect x="1820" y="152" width="16" height="528" fill="#4c2c10"/>

  <!-- 書（第一排 y=168~280） -->
  <rect x="1568" y="180" width="28" height="96"  fill="#c41818"/>
  <rect x="1600" y="188" width="24" height="88"  fill="#1840a0"/>
  <rect x="1628" y="176" width="32" height="100" fill="#186820"/>
  <rect x="1664" y="184" width="20" height="92"  fill="#804010"/>
  <rect x="1688" y="172" width="28" height="104" fill="#602080"/>
  <rect x="1720" y="186" width="24" height="90"  fill="#008090"/>
  <rect x="1748" y="180" width="20" height="96"  fill="#a02040"/>
  <rect x="1772" y="188" width="16" height="88"  fill="#c88020"/>
  <!-- 書（第二排 y=296~408） -->
  <rect x="1568" y="300" width="24" height="104" fill="#0060c0"/>
  <rect x="1596" y="306" width="28" height="98"  fill="#a03020"/>
  <rect x="1628" y="298" width="20" height="106" fill="#204060"/>
  <rect x="1652" y="304" width="32" height="100" fill="#606010"/>
  <rect x="1688" y="296" width="24" height="108" fill="#802040"/>
  <rect x="1716" y="302" width="28" height="102" fill="#106040"/>
  <rect x="1748" y="300" width="20" height="104" fill="#5c3010"/>
  <rect x="1772" y="306" width="16" height="98"  fill="#301060"/>
  <!-- 書（第三排 y=424~536） -->
  <rect x="1568" y="426" width="20" height="106" fill="#008040"/>
  <rect x="1592" y="432" width="32" height="100" fill="#803018"/>
  <rect x="1628" y="424" width="24" height="108" fill="#1c1c6c"/>
  <rect x="1656" y="430" width="28" height="102" fill="#c05010"/>
  <rect x="1688" y="422" width="20" height="110" fill="#402080"/>
  <rect x="1712" y="428" width="24" height="104" fill="#106060"/>
  <rect x="1740" y="426" width="28" height="106" fill="#a0180c"/>
  <rect x="1772" y="432" width="16" height="100" fill="#607820"/>
  <!-- 小植物 -->
  <rect x="1780" y="412" width="28" height="28" fill="#3d2010"/>
  <rect x="1786" y="386" width="16" height="30" fill="#1a5010"/>
  <rect x="1776" y="394" width="10" height="22" fill="#1a5010"/>
  <rect x="1796" y="390" width="12" height="26" fill="#1a5010"/>
  <!-- 書（第四排 y=552~664，較雜亂） -->
  <rect x="1568" y="556" width="24" height="104" fill="#a02020"/>
  <rect x="1596" y="548" width="32" height="112" fill="#106040"/>
  <rect x="1632" y="558" width="20" height="102" fill="#402060"/>
  <rect x="1656" y="544" width="28" height="116" fill="#c06010"/>
  <rect x="1688" y="556" width="24" height="104" fill="#004080"/>
  <rect x="1716" y="550" width="20" height="110" fill="#601818"/>
  <rect x="1740" y="558" width="28" height="102" fill="#206050"/>
  <rect x="1772" y="546" width="16" height="114" fill="#804028"/>

  <!-- ===== 踢腳板 ===== -->
  <rect x="0" y="760" width="1920" height="14" fill="#3c2010"/>
  <rect x="0" y="774" width="1920" height="7"  fill="#201008"/>

  <!-- ===== 木地板 ===== -->
  <rect x="0" y="781" width="1920" height="299" fill="#3d2010"/>
  <!-- 地板橫縫 -->
  <rect x="0" y="849" width="1920" height="3" fill="#1e0c04" opacity="0.65"/>
  <rect x="0" y="917" width="1920" height="3" fill="#1e0c04" opacity="0.65"/>
  <rect x="0" y="985" width="1920" height="3" fill="#1e0c04" opacity="0.65"/>
  <rect x="0" y="1053" width="1920" height="3" fill="#1e0c04" opacity="0.65"/>
  <!-- 地板縱縫（交錯） -->
  <rect x="256"  y="781" width="2" height="68" fill="#1e0c04" opacity="0.45"/>
  <rect x="512"  y="781" width="2" height="68" fill="#1e0c04" opacity="0.45"/>
  <rect x="768"  y="781" width="2" height="68" fill="#1e0c04" opacity="0.45"/>
  <rect x="1024" y="781" width="2" height="68" fill="#1e0c04" opacity="0.45"/>
  <rect x="1280" y="781" width="2" height="68" fill="#1e0c04" opacity="0.45"/>
  <rect x="1536" y="781" width="2" height="68" fill="#1e0c04" opacity="0.45"/>
  <rect x="1792" y="781" width="2" height="68" fill="#1e0c04" opacity="0.45"/>
  <rect x="128"  y="852" width="2" height="65" fill="#1e0c04" opacity="0.45"/>
  <rect x="384"  y="852" width="2" height="65" fill="#1e0c04" opacity="0.45"/>
  <rect x="640"  y="852" width="2" height="65" fill="#1e0c04" opacity="0.45"/>
  <rect x="896"  y="852" width="2" height="65" fill="#1e0c04" opacity="0.45"/>
  <rect x="1152" y="852" width="2" height="65" fill="#1e0c04" opacity="0.45"/>
  <rect x="1408" y="852" width="2" height="65" fill="#1e0c04" opacity="0.45"/>
  <rect x="1664" y="852" width="2" height="65" fill="#1e0c04" opacity="0.45"/>
  <rect x="256"  y="920" width="2" height="65" fill="#1e0c04" opacity="0.45"/>
  <rect x="512"  y="920" width="2" height="65" fill="#1e0c04" opacity="0.45"/>
  <rect x="768"  y="920" width="2" height="65" fill="#1e0c04" opacity="0.45"/>
  <rect x="1024" y="920" width="2" height="65" fill="#1e0c04" opacity="0.45"/>
  <rect x="1280" y="920" width="2" height="65" fill="#1e0c04" opacity="0.45"/>
  <rect x="1536" y="920" width="2" height="65" fill="#1e0c04" opacity="0.45"/>
  <rect x="1792" y="920" width="2" height="65" fill="#1e0c04" opacity="0.45"/>
  <!-- 地板暖色薄層 -->
  <rect x="0" y="781" width="1920" height="299" fill="#ff8030" opacity="0.028"/>
  <!-- 窗光映地 -->
  <rect x="160" y="781" width="360" height="299" fill="#8090c0" opacity="0.045"/>
</svg>
