<?xml version="1.0" encoding="UTF-8"?>
<svg xmlns="http://www.w3.org/2000/svg" viewBox="0 0 1920 1080" preserveAspectRatio="xMidYMid slice">
  <defs>
    <linearGradient id="sky" x1="0" y1="0" x2="0" y2="1">
      <stop offset="0%"   stop-color="#050810"/>
      <stop offset="55%"  stop-color="#09122a"/>
      <stop offset="100%" stop-color="#0c1c10"/>
    </linearGradient>
    <radialGradient id="moonHalo" cx="50%" cy="50%" r="50%">
      <stop offset="0%"   stop-color="#c8d8a0" stop-opacity="0.28"/>
      <stop offset="100%" stop-color="#c8d8a0" stop-opacity="0"/>
    </radialGradient>
    <radialGradient id="ff1" cx="50%" cy="50%" r="50%">
      <stop offset="0%"   stop-color="#a0ff58" stop-opacity="0.9"/>
      <stop offset="100%" stop-color="#a0ff58" stop-opacity="0"/>
    </radialGradient>
    <radialGradient id="ff2" cx="50%" cy="50%" r="50%">
      <stop offset="0%"   stop-color="#c0ff80" stop-opacity="0.8"/>
      <stop offset="100%" stop-color="#c0ff80" stop-opacity="0"/>
    </radialGradient>
  </defs>

  <!-- 夜空 -->
  <rect width="1920" height="1080" fill="url(#sky)"/>

  <!-- 月暈 -->
  <ellipse cx="1528" cy="176" rx="200" ry="180" fill="url(#moonHalo)"/>
  <!-- 月亮（像素方塊感） -->
  <rect x="1488" y="120" width="80" height="80" rx="6" fill="#dce8b8"/>
  <!-- 月面紋理 -->
  <rect x="1496" y="128" width="20" height="20" fill="#c4d0a0" opacity="0.55"/>
  <rect x="1530" y="152" width="14" height="14" fill="#c4d0a0" opacity="0.45"/>
  <rect x="1506" y="160" width="10" height="10" fill="#c4d0a0" opacity="0.35"/>

  <!-- 星星（像素點陣） -->
  <rect x="80"   y="40"  width="4" height="4" fill="#fff" opacity="0.90"/>
  <rect x="196"  y="88"  width="2" height="2" fill="#fff" opacity="0.70"/>
  <rect x="328"  y="52"  width="4" height="4" fill="#fff" opacity="0.80"/>
  <rect x="484"  y="24"  width="2" height="2" fill="#fff" opacity="0.65"/>
  <rect x="572"  y="76"  width="4" height="4" fill="#fff" opacity="0.90"/>
  <rect x="648"  y="44"  width="2" height="2" fill="#fff" opacity="0.70"/>
  <rect x="764"  y="108" width="4" height="4" fill="#fff" opacity="0.75"/>
  <rect x="912"  y="28"  width="2" height="2" fill="#fff" opacity="0.60"/>
  <rect x="1008" y="68"  width="4" height="4" fill="#fff" opacity="0.85"/>
  <rect x="1104" y="48"  width="2" height="2" fill="#fff" opacity="0.70"/>
  <rect x="1212" y="92"  width="4" height="4" fill="#fff" opacity="0.80"/>
  <rect x="1308" y="32"  width="2" height="2" fill="#fff" opacity="0.65"/>
  <rect x="1660" y="56"  width="4" height="4" fill="#fff" opacity="0.90"/>
  <rect x="1752" y="96"  width="2" height="2" fill="#fff" opacity="0.70"/>
  <rect x="1856" y="36"  width="4" height="4" fill="#fff" opacity="0.80"/>
  <rect x="144"  y="164" width="2" height="2" fill="#fff" opacity="0.50"/>
  <rect x="388"  y="144" width="4" height="4" fill="#fff" opacity="0.65"/>
  <rect x="708"  y="156" width="2" height="2" fill="#fff" opacity="0.60"/>
  <rect x="1060" y="180" width="4" height="4" fill="#fff" opacity="0.55"/>
  <rect x="1412" y="136" width="2" height="2" fill="#fff" opacity="0.75"/>
  <rect x="1704" y="172" width="4" height="4" fill="#fff" opacity="0.60"/>
  <rect x="244"  y="244" width="2" height="2" fill="#fff" opacity="0.50"/>
  <rect x="832"  y="216" width="4" height="4" fill="#fff" opacity="0.60"/>
  <rect x="1268" y="256" width="2" height="2" fill="#fff" opacity="0.50"/>
  <rect x="1596" y="236" width="4" height="4" fill="#fff" opacity="0.65"/>
  <rect x="60"   y="300" width="2" height="2" fill="#fff" opacity="0.40"/>
  <rect x="1140" y="320" width="4" height="4" fill="#fff" opacity="0.45"/>
  <rect x="1800" y="288" width="2" height="2" fill="#fff" opacity="0.55"/>

  <!-- 遠景山丘 -->
  <rect x="0"    y="696" width="480" height="136" fill="#0a2010"/>
  <rect x="380"  y="672" width="560" height="160" fill="#0a2010"/>
  <rect x="880"  y="688" width="500" height="144" fill="#0a2010"/>
  <rect x="1320" y="664" width="600" height="168" fill="#0a2010"/>

  <!-- 中景樹（偏亮，製造景深） -->
  <!-- MG 樹 A -->
  <rect x="60"  y="448" width="56" height="384" fill="#0a2010"/>
  <rect x="28"  y="352" width="120" height="128" fill="#0c2812"/>
  <rect x="8"   y="440" width="160" height="80"  fill="#0c2812"/>
  <rect x="40"  y="264" width="96"  height="120" fill="#0d2e14"/>
  <rect x="56"  y="184" width="64"  height="104" fill="#0d2e14"/>
  <rect x="64"  y="120" width="48"  height="88"  fill="#0f3416"/>
  <!-- MG 樹 B -->
  <rect x="312" y="528" width="40" height="304" fill="#0a2010"/>
  <rect x="284" y="440" width="96"  height="120" fill="#0c2812"/>
  <rect x="268" y="520" width="128" height="64"  fill="#0c2812"/>
  <rect x="292" y="360" width="72"  height="112" fill="#0d2e14"/>
  <rect x="308" y="280" width="48"  height="104" fill="#0f3416"/>
  <!-- MG 樹 C -->
  <rect x="1584" y="488" width="48" height="344" fill="#0a2010"/>
  <rect x="556"  y="408" width="96"  height="120" fill="#0c2812"/>
  <rect x="1544" y="408" width="96"  height="120" fill="#0c2812"/>
  <rect x="1528" y="480" width="128" height="64"  fill="#0c2812"/>
  <rect x="1552" y="328" width="80"  height="112" fill="#0d2e14"/>
  <rect x="1568" y="248" width="56"  height="104" fill="#0f3416"/>
  <!-- MG 樹 D -->
  <rect x="1764" y="504" width="56" height="328" fill="#0a2010"/>
  <rect x="1732" y="416" width="120" height="128" fill="#0c2812"/>
  <rect x="1716" y="504" width="152" height="80"  fill="#0c2812"/>
  <rect x="1748" y="328" width="88"  height="120" fill="#0d2e14"/>
  <rect x="1764" y="248" width="56"  height="104" fill="#0d2e14"/>

  <!-- 前景樹（最暗，框住畫面） -->
  <!-- FG 樹 1：最左，超高 -->
  <rect x="-24" y="280" width="72" height="568" fill="#060c06"/>
  <rect x="-56" y="192" width="144" height="168" fill="#070e07"/>
  <rect x="-72" y="280" width="176" height="128" fill="#070e07"/>
  <rect x="-56" y="368" width="160" height="80"  fill="#070e07"/>
  <rect x="-24" y="112" width="112" height="152" fill="#080f08"/>
  <rect x="-8"  y="40"  width="80"  height="112" fill="#091009"/>
  <rect x="8"   y="-16" width="48"  height="72"  fill="#0a1209"/>
  <!-- FG 樹 2 -->
  <rect x="168" y="360" width="64" height="480" fill="#060c06"/>
  <rect x="132" y="272" width="136" height="160" fill="#070e07"/>
  <rect x="116" y="360" width="168" height="120" fill="#070e07"/>
  <rect x="148" y="192" width="104" height="112" fill="#080f08"/>
  <rect x="168" y="120" width="64"  height="104" fill="#091009"/>
  <rect x="176" y="56"  width="48"  height="88"  fill="#0a1209"/>
  <!-- FG 樹 3：左中高大 -->
  <rect x="368" y="240" width="80" height="608" fill="#060c06"/>
  <rect x="328" y="152" width="160" height="160" fill="#070e07"/>
  <rect x="304" y="240" width="208" height="128" fill="#070e07"/>
  <rect x="320" y="328" width="176" height="88"  fill="#070e07"/>
  <rect x="344" y="72"  width="128" height="128" fill="#080f08"/>
  <rect x="368" y="0"   width="80"  height="96"  fill="#091009"/>
  <rect x="376" y="-48" width="64"  height="64"  fill="#0a1209"/>
  <!-- FG 樹 4：矮一點，破單調 -->
  <rect x="648" y="480" width="56" height="368" fill="#060c06"/>
  <rect x="616" y="400" width="120" height="120" fill="#070e07"/>
  <rect x="600" y="480" width="152" height="80"  fill="#070e07"/>
  <rect x="628" y="320" width="88"  height="112" fill="#080f08"/>
  <rect x="648" y="240" width="56"  height="112" fill="#091009"/>
  <rect x="656" y="176" width="40"  height="88"  fill="#0a1209"/>
  <!-- FG 樹 5：右中高大 -->
  <rect x="1448" y="240" width="80" height="608" fill="#060c06"/>
  <rect x="1408" y="152" width="160" height="160" fill="#070e07"/>
  <rect x="1384" y="240" width="208" height="128" fill="#070e07"/>
  <rect x="1400" y="328" width="176" height="88"  fill="#070e07"/>
  <rect x="1424" y="72"  width="128" height="128" fill="#080f08"/>
  <rect x="1448" y="0"   width="80"  height="96"  fill="#091009"/>
  <rect x="1456" y="-48" width="64"  height="64"  fill="#0a1209"/>
  <!-- FG 樹 6 -->
  <rect x="1728" y="360" width="64" height="480" fill="#060c06"/>
  <rect x="1692" y="272" width="136" height="160" fill="#070e07"/>
  <rect x="1676" y="360" width="168" height="120" fill="#070e07"/>
  <rect x="1708" y="192" width="104" height="112" fill="#080f08"/>
  <rect x="1728" y="120" width="64"  height="104" fill="#091009"/>
  <rect x="1736" y="56"  width="48"  height="88"  fill="#0a1209"/>
  <!-- FG 樹 7：最右 -->
  <rect x="1864" y="312" width="72" height="528" fill="#060c06"/>
  <rect x="1828" y="224" width="144" height="160" fill="#070e07"/>
  <rect x="1808" y="312" width="184" height="128" fill="#070e07"/>
  <rect x="1836" y="152" width="128" height="120" fill="#080f08"/>
  <rect x="1860" y="72"  width="80"  height="112" fill="#091009"/>
  <rect x="1868" y="8"   width="64"  height="88"  fill="#0a1209"/>

  <!-- 地面 -->
  <rect x="0" y="816" width="1920" height="264" fill="#071508"/>
  <rect x="0" y="808" width="1920" height="16"  fill="#0f2810"/>
  <rect x="0" y="808" width="1920" height="8"   fill="#183818"/>

  <!-- 草叢細節 -->
  <rect x="48"   y="808" width="8"  height="18" fill="#1e4020"/>
  <rect x="96"   y="808" width="6"  height="14" fill="#1e4020"/>
  <rect x="176"  y="808" width="8"  height="22" fill="#1e4020"/>
  <rect x="272"  y="808" width="6"  height="16" fill="#1e4020"/>
  <rect x="384"  y="808" width="8"  height="20" fill="#1e4020"/>
  <rect x="496"  y="808" width="6"  height="14" fill="#1e4020"/>
  <rect x="608"  y="808" width="8"  height="18" fill="#1e4020"/>
  <rect x="720"  y="808" width="6"  height="22" fill="#1e4020"/>
  <rect x="864"  y="808" width="8"  height="16" fill="#1e4020"/>
  <rect x="1008" y="808" width="6"  height="20" fill="#1e4020"/>
  <rect x="1136" y="808" width="8"  height="14" fill="#1e4020"/>
  <rect x="1264" y="808" width="6"  height="18" fill="#1e4020"/>
  <rect x="1392" y="808" width="8"  height="22" fill="#1e4020"/>
  <rect x="1520" y="808" width="6"  height="16" fill="#1e4020"/>
  <rect x="1648" y="808" width="8"  height="20" fill="#1e4020"/>
  <rect x="1776" y="808" width="6"  height="14" fill="#1e4020"/>
  <rect x="1888" y="808" width="8"  height="18" fill="#1e4020"/>

  <!-- 螢火蟲（雙層橢圓模擬光暈） -->
  <ellipse cx="528"  cy="724" rx="10" ry="10" fill="#90ff50" opacity="0.50"/>
  <ellipse cx="528"  cy="724" rx="3"  ry="3"  fill="#d0ff90" opacity="0.95"/>
  <ellipse cx="800"  cy="692" rx="8"  ry="8"  fill="#90ff50" opacity="0.45"/>
  <ellipse cx="800"  cy="692" rx="2"  ry="2"  fill="#d0ff90" opacity="0.95"/>
  <ellipse cx="1072" cy="752" rx="10" ry="10" fill="#90ff50" opacity="0.60"/>
  <ellipse cx="1072" cy="752" rx="3"  ry="3"  fill="#d0ff90" opacity="0.95"/>
  <ellipse cx="1296" cy="708" rx="8"  ry="8"  fill="#90ff50" opacity="0.45"/>
  <ellipse cx="1296" cy="708" rx="2"  ry="2"  fill="#d0ff90" opacity="0.95"/>
  <ellipse cx="1536" cy="768" rx="10" ry="10" fill="#90ff50" opacity="0.55"/>
  <ellipse cx="1536" cy="768" rx="3"  ry="3"  fill="#d0ff90" opacity="0.95"/>
  <ellipse cx="1728" cy="736" rx="8"  ry="8"  fill="#90ff50" opacity="0.40"/>
  <ellipse cx="1728" cy="736" rx="2"  ry="2"  fill="#d0ff90" opacity="0.95"/>

  <!-- 月光映地 -->
  <rect x="1280" y="816" width="580" height="5" fill="#c8d8a0" opacity="0.06"/>
</svg>
